<mxfile host="65bd71144e">
    <diagram id="jk-mDYcw6juqVpxIaa4l" name="第 1 页">
        <mxGraphModel dx="1904" dy="1012" grid="1" gridSize="10" guides="1" tooltips="1" connect="1" arrows="1" fold="1" page="1" pageScale="1" pageWidth="1920" pageHeight="1200" math="0" shadow="0">
            <root>
                <mxCell id="0"/>
                <mxCell id="1" parent="0"/>
                <mxCell id="3" value="&lt;font style=&quot;font-size: 24px&quot; color=&quot;#000000&quot;&gt;saas&lt;/font&gt;" style="rounded=0;whiteSpace=wrap;html=1;fillColor=#FF8000;" vertex="1" parent="1">
                    <mxGeometry x="140" y="90" width="120" height="60" as="geometry"/>
                </mxCell>
                <mxCell id="13" value="" style="group" vertex="1" connectable="0" parent="1">
                    <mxGeometry x="50" y="220" width="310" height="180" as="geometry"/>
                </mxCell>
                <mxCell id="4" value="" style="rounded=0;whiteSpace=wrap;html=1;" vertex="1" parent="13">
                    <mxGeometry x="50" width="260" height="180" as="geometry"/>
                </mxCell>
                <mxCell id="5" value="" style="rounded=0;whiteSpace=wrap;html=1;" vertex="1" parent="13">
                    <mxGeometry x="190" width="120" height="60" as="geometry"/>
                </mxCell>
                <mxCell id="6" value="3" style="ellipse;whiteSpace=wrap;html=1;aspect=fixed;" vertex="1" parent="13">
                    <mxGeometry x="230" y="10" width="40" height="40" as="geometry"/>
                </mxCell>
                <mxCell id="7" value="" style="whiteSpace=wrap;html=1;aspect=fixed;" vertex="1" parent="13">
                    <mxGeometry x="190" y="60" width="120" height="120" as="geometry"/>
                </mxCell>
                <mxCell id="8" value="4" style="ellipse;whiteSpace=wrap;html=1;aspect=fixed;" vertex="1" parent="13">
                    <mxGeometry x="230" y="100" width="40" height="40" as="geometry"/>
                </mxCell>
                <mxCell id="9" value="" style="rounded=0;whiteSpace=wrap;html=1;" vertex="1" parent="13">
                    <mxGeometry width="50" height="180" as="geometry"/>
                </mxCell>
                <mxCell id="11" value="1" style="ellipse;whiteSpace=wrap;html=1;aspect=fixed;" vertex="1" parent="13">
                    <mxGeometry x="5" y="70" width="40" height="40" as="geometry"/>
                </mxCell>
                <mxCell id="12" value="2" style="ellipse;whiteSpace=wrap;html=1;aspect=fixed;" vertex="1" parent="13">
                    <mxGeometry x="100" y="70" width="40" height="40" as="geometry"/>
                </mxCell>
                <mxCell id="19" value="&lt;font style=&quot;font-size: 24px&quot; color=&quot;#000000&quot;&gt;知客&lt;/font&gt;" style="rounded=0;whiteSpace=wrap;html=1;fillColor=#FFFF00;" vertex="1" parent="1">
                    <mxGeometry x="540" y="90" width="120" height="60" as="geometry"/>
                </mxCell>
                <mxCell id="20" value="" style="group" vertex="1" connectable="0" parent="1">
                    <mxGeometry x="420" y="220" width="390" height="180" as="geometry"/>
                </mxCell>
                <mxCell id="37" value="" style="group" vertex="1" connectable="0" parent="20">
                    <mxGeometry x="50" width="260" height="180" as="geometry"/>
                </mxCell>
                <mxCell id="21" value="" style="rounded=0;whiteSpace=wrap;html=1;" vertex="1" parent="37">
                    <mxGeometry width="260" height="180" as="geometry"/>
                </mxCell>
                <mxCell id="22" value="" style="rounded=0;whiteSpace=wrap;html=1;" vertex="1" parent="37">
                    <mxGeometry y="130" width="180" height="50" as="geometry"/>
                </mxCell>
                <mxCell id="28" value="2" style="ellipse;whiteSpace=wrap;html=1;aspect=fixed;" vertex="1" parent="37">
                    <mxGeometry x="70" y="50" width="40" height="40" as="geometry"/>
                </mxCell>
                <mxCell id="32" value="" style="rounded=0;whiteSpace=wrap;html=1;" vertex="1" parent="37">
                    <mxGeometry x="180" width="80" height="60" as="geometry"/>
                </mxCell>
                <mxCell id="33" value="" style="rounded=0;whiteSpace=wrap;html=1;shadow=1;strokeColor=#FFFFFF;fillColor=none;" vertex="1" parent="37">
                    <mxGeometry x="180" y="60" width="80" height="120" as="geometry"/>
                </mxCell>
                <mxCell id="34" value="3" style="ellipse;whiteSpace=wrap;html=1;aspect=fixed;" vertex="1" parent="37">
                    <mxGeometry x="200" y="100" width="40" height="40" as="geometry"/>
                </mxCell>
                <mxCell id="35" value="1" style="ellipse;whiteSpace=wrap;html=1;aspect=fixed;" vertex="1" parent="37">
                    <mxGeometry x="200" y="10" width="40" height="40" as="geometry"/>
                </mxCell>
                <mxCell id="36" value="4" style="ellipse;whiteSpace=wrap;html=1;aspect=fixed;" vertex="1" parent="37">
                    <mxGeometry x="70" y="135" width="40" height="40" as="geometry"/>
                </mxCell>
                <mxCell id="38" value="&lt;span style=&quot;font-size: 13px ; background-color: rgba(255 , 255 , 255 , 0.01)&quot;&gt;&lt;font color=&quot;#ffffff&quot;&gt;layout-A 布局框架&lt;/font&gt;&lt;/span&gt;" style="rounded=0;whiteSpace=wrap;html=1;shadow=1;strokeColor=#FFFFFF;fillColor=none;" vertex="1" parent="1">
                    <mxGeometry x="50" y="440" width="260" height="40" as="geometry"/>
                </mxCell>
                <mxCell id="39" value="&lt;span style=&quot;font-size: 13px ; background-color: rgba(255 , 255 , 255 , 0.01)&quot;&gt;&lt;font color=&quot;#ffffff&quot;&gt;layout-B 布局框架&lt;/font&gt;&lt;/span&gt;" style="rounded=0;whiteSpace=wrap;html=1;shadow=1;strokeColor=#FFFFFF;fillColor=none;" vertex="1" parent="1">
                    <mxGeometry x="470" y="440" width="260" height="40" as="geometry"/>
                </mxCell>
                <mxCell id="45" value="" style="group" vertex="1" connectable="0" parent="1">
                    <mxGeometry x="50" y="480" width="270" height="150" as="geometry"/>
                </mxCell>
                <mxCell id="40" value="" style="rounded=0;whiteSpace=wrap;html=1;shadow=1;strokeColor=#FFFFFF;fillColor=none;" vertex="1" parent="45">
                    <mxGeometry width="260" height="150" as="geometry"/>
                </mxCell>
                <mxCell id="42" value="布局配置" style="rounded=1;whiteSpace=wrap;html=1;shadow=1;strokeColor=#FFFFFF;fillColor=none;" vertex="1" parent="45">
                    <mxGeometry x="20" y="20" width="90" height="40" as="geometry"/>
                </mxCell>
                <mxCell id="43" value="组件编排" style="rounded=1;whiteSpace=wrap;html=1;shadow=1;strokeColor=#FFFFFF;fillColor=none;" vertex="1" parent="45">
                    <mxGeometry x="150" y="20" width="90" height="40" as="geometry"/>
                </mxCell>
                <mxCell id="44" value="交互编排" style="rounded=1;whiteSpace=wrap;html=1;shadow=1;strokeColor=#FFFFFF;fillColor=none;" vertex="1" parent="45">
                    <mxGeometry x="20" y="80" width="90" height="40" as="geometry"/>
                </mxCell>
                <mxCell id="46" value="" style="group" vertex="1" connectable="0" parent="1">
                    <mxGeometry x="470" y="480" width="260" height="150" as="geometry"/>
                </mxCell>
                <mxCell id="47" value="" style="rounded=0;whiteSpace=wrap;html=1;shadow=1;strokeColor=#FFFFFF;fillColor=none;" vertex="1" parent="46">
                    <mxGeometry width="260" height="150" as="geometry"/>
                </mxCell>
                <mxCell id="48" value="布局配置" style="rounded=1;whiteSpace=wrap;html=1;shadow=1;strokeColor=#FFFFFF;fillColor=none;" vertex="1" parent="46">
                    <mxGeometry x="20" y="20" width="90" height="40" as="geometry"/>
                </mxCell>
                <mxCell id="49" value="组件编排" style="rounded=1;whiteSpace=wrap;html=1;shadow=1;strokeColor=#FFFFFF;fillColor=none;" vertex="1" parent="46">
                    <mxGeometry x="150" y="20" width="90" height="40" as="geometry"/>
                </mxCell>
                <mxCell id="50" value="交互编排" style="rounded=1;whiteSpace=wrap;html=1;shadow=1;strokeColor=#FFFFFF;fillColor=none;" vertex="1" parent="46">
                    <mxGeometry x="20" y="80" width="90" height="40" as="geometry"/>
                </mxCell>
                <mxCell id="51" value="&lt;span style=&quot;font-size: 13px ; background-color: rgba(255 , 255 , 255 , 0.01)&quot;&gt;&lt;font color=&quot;#000000&quot;&gt;布局配置&lt;/font&gt;&lt;/span&gt;" style="rounded=0;whiteSpace=wrap;html=1;shadow=1;strokeColor=#FFFFFF;fillColor=#99CCFF;" vertex="1" parent="1">
                    <mxGeometry x="55" y="700" width="260" height="40" as="geometry"/>
                </mxCell>
                <mxCell id="53" value="&lt;span style=&quot;font-size: 13px ; background-color: rgba(255 , 255 , 255 , 0.01)&quot;&gt;&lt;font color=&quot;#000000&quot;&gt;组件编排&lt;/font&gt;&lt;/span&gt;" style="rounded=0;whiteSpace=wrap;html=1;shadow=1;strokeColor=#FFFFFF;fillColor=#99CCFF;" vertex="1" parent="1">
                    <mxGeometry x="55" y="920" width="260" height="40" as="geometry"/>
                </mxCell>
                <mxCell id="55" value="&lt;span style=&quot;font-size: 13px ; background-color: rgba(255 , 255 , 255 , 0.01)&quot;&gt;&lt;font color=&quot;#ffffff&quot;&gt;多语言&lt;/font&gt;&lt;/span&gt;" style="rounded=0;whiteSpace=wrap;html=1;shadow=1;strokeColor=#FFFFFF;fillColor=none;" vertex="1" parent="1">
                    <mxGeometry x="55" y="740" width="260" height="40" as="geometry"/>
                </mxCell>
                <mxCell id="56" value="&lt;span style=&quot;font-size: 13px ; background-color: rgba(255 , 255 , 255 , 0.01)&quot;&gt;&lt;font color=&quot;#ffffff&quot;&gt;ui&lt;/font&gt;&lt;/span&gt;" style="rounded=0;whiteSpace=wrap;html=1;shadow=1;strokeColor=#FFFFFF;fillColor=none;" vertex="1" parent="1">
                    <mxGeometry x="55" y="780" width="260" height="40" as="geometry"/>
                </mxCell>
                <mxCell id="57" value="&lt;span style=&quot;font-size: 13px ; background-color: rgba(255 , 255 , 255 , 0.01)&quot;&gt;&lt;font color=&quot;#ffffff&quot;&gt;ui&lt;/font&gt;&lt;/span&gt;" style="rounded=0;whiteSpace=wrap;html=1;shadow=1;strokeColor=#FFFFFF;fillColor=none;" vertex="1" parent="1">
                    <mxGeometry x="55" y="960" width="260" height="40" as="geometry"/>
                </mxCell>
                <mxCell id="58" value="&lt;font color=&quot;#ffffff&quot;&gt;&lt;span style=&quot;font-size: 13px ; background-color: rgba(255 , 255 , 255 , 0.01)&quot;&gt;交互&lt;/span&gt;&lt;/font&gt;" style="rounded=0;whiteSpace=wrap;html=1;shadow=1;strokeColor=#FFFFFF;fillColor=none;" vertex="1" parent="1">
                    <mxGeometry x="55" y="1000" width="260" height="40" as="geometry"/>
                </mxCell>
                <mxCell id="59" value="&lt;font color=&quot;#ffffff&quot;&gt;&lt;span style=&quot;font-size: 13px ; background-color: rgba(255 , 255 , 255 , 0.01)&quot;&gt;api&lt;/span&gt;&lt;/font&gt;" style="rounded=0;whiteSpace=wrap;html=1;shadow=1;strokeColor=#FFFFFF;fillColor=none;" vertex="1" parent="1">
                    <mxGeometry x="55" y="1040" width="260" height="40" as="geometry"/>
                </mxCell>
                <mxCell id="81" value="" style="group" vertex="1" connectable="0" parent="1">
                    <mxGeometry x="940" y="970" width="360" height="90" as="geometry"/>
                </mxCell>
                <mxCell id="77" value="事件驱动模型sdk" style="rounded=0;whiteSpace=wrap;html=1;shadow=1;strokeColor=#FFFFFF;fillColor=#00994D;" vertex="1" parent="81">
                    <mxGeometry width="360" height="50" as="geometry"/>
                </mxCell>
                <mxCell id="78" value="事件驱动" style="rounded=0;whiteSpace=wrap;html=1;shadow=1;strokeColor=#FFFFFF;fillColor=none;" vertex="1" parent="81">
                    <mxGeometry y="50" width="120" height="40" as="geometry"/>
                </mxCell>
                <mxCell id="80" value="服务api注册" style="rounded=0;whiteSpace=wrap;html=1;shadow=1;strokeColor=#FFFFFF;fillColor=none;" vertex="1" parent="81">
                    <mxGeometry x="120" y="50" width="120" height="40" as="geometry"/>
                </mxCell>
                <mxCell id="79" value="信令处理" style="rounded=0;whiteSpace=wrap;html=1;shadow=1;strokeColor=#FFFFFF;fillColor=none;" vertex="1" parent="81">
                    <mxGeometry x="240" y="50" width="120" height="40" as="geometry"/>
                </mxCell>
                <mxCell id="134" value="" style="group" vertex="1" connectable="0" parent="1">
                    <mxGeometry x="950" y="460" width="300" height="200" as="geometry"/>
                </mxCell>
                <mxCell id="116" value="&lt;span style=&quot;font-size: 13px ; background-color: rgba(255 , 255 , 255 , 0.01)&quot;&gt;&lt;font color=&quot;#000000&quot;&gt;交互编排&lt;/font&gt;&lt;/span&gt;" style="rounded=0;whiteSpace=wrap;html=1;shadow=1;strokeColor=#FFFFFF;fillColor=#99CCFF;" vertex="1" parent="134">
                    <mxGeometry x="40" width="260" height="40" as="geometry"/>
                </mxCell>
                <mxCell id="121" value="" style="group" vertex="1" connectable="0" parent="134">
                    <mxGeometry y="40" width="300" height="80" as="geometry"/>
                </mxCell>
                <mxCell id="132" value="" style="group" vertex="1" connectable="0" parent="121">
                    <mxGeometry width="300" height="80" as="geometry"/>
                </mxCell>
                <mxCell id="117" value="&lt;font color=&quot;#ffffff&quot;&gt;&lt;span style=&quot;font-size: 13px ; background-color: rgba(255 , 255 , 255 , 0.01)&quot;&gt;A1:f(1)-&amp;gt;B1:f(1)&lt;/span&gt;&lt;/font&gt;" style="rounded=0;whiteSpace=wrap;html=1;shadow=1;strokeColor=#FFFFFF;fillColor=none;" vertex="1" parent="132">
                    <mxGeometry x="130" width="170" height="40" as="geometry"/>
                </mxCell>
                <mxCell id="118" value="&lt;span style=&quot;color: rgb(255 , 255 , 255) ; font-size: 13px ; background-color: rgba(255 , 255 , 255 , 0.01)&quot;&gt;A1:f(1)-&amp;gt;B1:f(3)&lt;/span&gt;" style="rounded=0;whiteSpace=wrap;html=1;shadow=1;strokeColor=#FFFFFF;fillColor=none;" vertex="1" parent="132">
                    <mxGeometry x="130" y="40" width="170" height="40" as="geometry"/>
                </mxCell>
                <mxCell id="120" value="A1" style="rounded=0;whiteSpace=wrap;html=1;shadow=1;strokeColor=#FFFFFF;fillColor=#00994D;" vertex="1" parent="132">
                    <mxGeometry width="40" height="80" as="geometry"/>
                </mxCell>
                <mxCell id="131" value="&lt;font color=&quot;#000000&quot;&gt;api 放大&lt;/font&gt;" style="ellipse;whiteSpace=wrap;html=1;shadow=1;strokeColor=#FFFFFF;fillColor=#99CCFF;" vertex="1" parent="132">
                    <mxGeometry x="50" y="20" width="70" height="40" as="geometry"/>
                </mxCell>
                <mxCell id="122" value="" style="group" vertex="1" connectable="0" parent="134">
                    <mxGeometry y="120" width="300" height="80" as="geometry"/>
                </mxCell>
                <mxCell id="129" value="" style="rounded=0;whiteSpace=wrap;html=1;shadow=1;strokeColor=#FFFFFF;fillColor=none;" vertex="1" parent="122">
                    <mxGeometry x="40" width="90" height="80" as="geometry"/>
                </mxCell>
                <mxCell id="133" value="" style="group" vertex="1" connectable="0" parent="122">
                    <mxGeometry width="300" height="80" as="geometry"/>
                </mxCell>
                <mxCell id="123" value="&lt;font color=&quot;#ffffff&quot;&gt;&lt;span style=&quot;font-size: 13px ; background-color: rgba(255 , 255 , 255 , 0.01)&quot;&gt;B1:f(1)-&amp;gt;A1:f(2)&lt;/span&gt;&lt;/font&gt;" style="rounded=0;whiteSpace=wrap;html=1;shadow=1;strokeColor=#FFFFFF;fillColor=none;" vertex="1" parent="133">
                    <mxGeometry x="130" width="170" height="40" as="geometry"/>
                </mxCell>
                <mxCell id="124" value="&lt;span style=&quot;color: rgb(255 , 255 , 255) ; font-size: 13px ; background-color: rgba(255 , 255 , 255 , 0.01)&quot;&gt;B1:f(1)-&amp;gt;A1:f(3)&lt;/span&gt;" style="rounded=0;whiteSpace=wrap;html=1;shadow=1;strokeColor=#FFFFFF;fillColor=none;" vertex="1" parent="133">
                    <mxGeometry x="130" y="40" width="170" height="40" as="geometry"/>
                </mxCell>
                <mxCell id="125" value="B1" style="rounded=0;whiteSpace=wrap;html=1;shadow=1;strokeColor=#FFFFFF;fillColor=#00994D;" vertex="1" parent="133">
                    <mxGeometry width="40" height="80" as="geometry"/>
                </mxCell>
                <mxCell id="126" value="&lt;font color=&quot;#000000&quot;&gt;api 显示&lt;/font&gt;" style="ellipse;whiteSpace=wrap;html=1;shadow=1;strokeColor=#FFFFFF;fillColor=#99CCFF;" vertex="1" parent="133">
                    <mxGeometry x="50" y="20" width="70" height="40" as="geometry"/>
                </mxCell>
                <mxCell id="135" value="" style="group" vertex="1" connectable="0" parent="1">
                    <mxGeometry x="590" y="800" width="210" height="290" as="geometry"/>
                </mxCell>
                <mxCell id="86" value="" style="group" vertex="1" connectable="0" parent="135">
                    <mxGeometry width="120" height="290" as="geometry"/>
                </mxCell>
                <mxCell id="63" value="A1组件" style="rounded=0;whiteSpace=wrap;html=1;shadow=1;strokeColor=#FFFFFF;fillColor=none;" vertex="1" parent="86">
                    <mxGeometry width="120" height="40" as="geometry"/>
                </mxCell>
                <mxCell id="85" value="" style="group" vertex="1" connectable="0" parent="86">
                    <mxGeometry y="40" width="120" height="250" as="geometry"/>
                </mxCell>
                <mxCell id="65" value="" style="rounded=0;whiteSpace=wrap;html=1;shadow=1;strokeColor=#FFFFFF;fillColor=none;" vertex="1" parent="85">
                    <mxGeometry width="120" height="250" as="geometry"/>
                </mxCell>
                <mxCell id="68" value="&lt;font color=&quot;#000000&quot;&gt;放大&lt;/font&gt;" style="ellipse;whiteSpace=wrap;html=1;shadow=1;strokeColor=#FFFFFF;fillColor=#99CCFF;" vertex="1" parent="85">
                    <mxGeometry x="20" y="20" width="80" height="40" as="geometry"/>
                </mxCell>
                <mxCell id="69" value="&lt;font color=&quot;#000000&quot;&gt;缩小&lt;/font&gt;" style="ellipse;whiteSpace=wrap;html=1;shadow=1;strokeColor=#FFFFFF;fillColor=#99CCFF;" vertex="1" parent="85">
                    <mxGeometry x="20" y="80" width="80" height="40" as="geometry"/>
                </mxCell>
                <mxCell id="70" value="&lt;font color=&quot;#000000&quot;&gt;暂停&lt;/font&gt;" style="ellipse;whiteSpace=wrap;html=1;shadow=1;strokeColor=#FFFFFF;fillColor=#99CCFF;" vertex="1" parent="85">
                    <mxGeometry x="20" y="140" width="80" height="40" as="geometry"/>
                </mxCell>
                <mxCell id="71" value="&lt;font color=&quot;#000000&quot;&gt;播放&lt;/font&gt;" style="ellipse;whiteSpace=wrap;html=1;shadow=1;strokeColor=#FFFFFF;fillColor=#99CCFF;" vertex="1" parent="85">
                    <mxGeometry x="20" y="200" width="80" height="40" as="geometry"/>
                </mxCell>
                <mxCell id="94" value="&lt;font color=&quot;#ffffff&quot;&gt;&lt;span style=&quot;font-size: 13px ; background-color: rgba(255 , 255 , 255 , 0.01)&quot;&gt;f(1)&lt;/span&gt;&lt;/font&gt;" style="rounded=0;whiteSpace=wrap;html=1;shadow=1;strokeColor=#FFFFFF;fillColor=none;" vertex="1" parent="135">
                    <mxGeometry x="130" y="65" width="80" height="30" as="geometry"/>
                </mxCell>
                <mxCell id="97" value="&lt;font color=&quot;#ffffff&quot;&gt;&lt;span style=&quot;font-size: 13px ; background-color: rgba(255 , 255 , 255 , 0.01)&quot;&gt;f(2)&lt;/span&gt;&lt;/font&gt;" style="rounded=0;whiteSpace=wrap;html=1;shadow=1;strokeColor=#FFFFFF;fillColor=none;" vertex="1" parent="135">
                    <mxGeometry x="130" y="125" width="80" height="30" as="geometry"/>
                </mxCell>
                <mxCell id="98" value="&lt;font color=&quot;#ffffff&quot;&gt;&lt;span style=&quot;font-size: 13px ; background-color: rgba(255 , 255 , 255 , 0.01)&quot;&gt;f(3)&lt;/span&gt;&lt;/font&gt;" style="rounded=0;whiteSpace=wrap;html=1;shadow=1;strokeColor=#FFFFFF;fillColor=none;" vertex="1" parent="135">
                    <mxGeometry x="130" y="185" width="80" height="30" as="geometry"/>
                </mxCell>
                <mxCell id="99" value="&lt;font color=&quot;#ffffff&quot;&gt;&lt;span style=&quot;font-size: 13px ; background-color: rgba(255 , 255 , 255 , 0.01)&quot;&gt;f(4)&lt;/span&gt;&lt;/font&gt;" style="rounded=0;whiteSpace=wrap;html=1;shadow=1;strokeColor=#FFFFFF;fillColor=none;" vertex="1" parent="135">
                    <mxGeometry x="130" y="245" width="80" height="30" as="geometry"/>
                </mxCell>
                <mxCell id="102" style="edgeStyle=none;html=1;entryX=0;entryY=0.5;entryDx=0;entryDy=0;" edge="1" parent="135" source="69" target="97">
                    <mxGeometry relative="1" as="geometry"/>
                </mxCell>
                <mxCell id="103" style="edgeStyle=none;html=1;entryX=0;entryY=0.5;entryDx=0;entryDy=0;" edge="1" parent="135" source="68" target="94">
                    <mxGeometry relative="1" as="geometry"/>
                </mxCell>
                <mxCell id="104" style="edgeStyle=none;html=1;entryX=0;entryY=0.5;entryDx=0;entryDy=0;" edge="1" parent="135" source="70" target="98">
                    <mxGeometry relative="1" as="geometry"/>
                </mxCell>
                <mxCell id="107" style="edgeStyle=none;html=1;entryX=0;entryY=0.5;entryDx=0;entryDy=0;" edge="1" parent="135" source="71" target="99">
                    <mxGeometry relative="1" as="geometry"/>
                </mxCell>
                <mxCell id="139" value="" style="group" vertex="1" connectable="0" parent="1">
                    <mxGeometry x="1480" y="800" width="210" height="290" as="geometry"/>
                </mxCell>
                <mxCell id="64" value="B1组件" style="rounded=0;whiteSpace=wrap;html=1;shadow=1;strokeColor=#FFFFFF;fillColor=none;" vertex="1" parent="139">
                    <mxGeometry width="120" height="40" as="geometry"/>
                </mxCell>
                <mxCell id="138" value="" style="group" vertex="1" connectable="0" parent="139">
                    <mxGeometry y="40" width="210" height="250" as="geometry"/>
                </mxCell>
                <mxCell id="66" value="" style="rounded=0;whiteSpace=wrap;html=1;shadow=1;strokeColor=#FFFFFF;fillColor=none;" vertex="1" parent="138">
                    <mxGeometry width="120" height="250" as="geometry"/>
                </mxCell>
                <mxCell id="72" value="&lt;font color=&quot;#000000&quot;&gt;显示&lt;/font&gt;" style="ellipse;whiteSpace=wrap;html=1;shadow=1;strokeColor=#FFFFFF;fillColor=#99CCFF;" vertex="1" parent="138">
                    <mxGeometry x="20" y="20" width="80" height="40" as="geometry"/>
                </mxCell>
                <mxCell id="73" value="&lt;font color=&quot;#000000&quot;&gt;隐藏&lt;/font&gt;" style="ellipse;whiteSpace=wrap;html=1;shadow=1;strokeColor=#FFFFFF;fillColor=#99CCFF;" vertex="1" parent="138">
                    <mxGeometry x="20" y="80" width="80" height="40" as="geometry"/>
                </mxCell>
                <mxCell id="74" value="&lt;font color=&quot;#000000&quot;&gt;全屏&lt;/font&gt;" style="ellipse;whiteSpace=wrap;html=1;shadow=1;strokeColor=#FFFFFF;fillColor=#99CCFF;" vertex="1" parent="138">
                    <mxGeometry x="20" y="140" width="80" height="40" as="geometry"/>
                </mxCell>
                <mxCell id="92" value="&lt;font color=&quot;#000000&quot;&gt;缩小&lt;/font&gt;" style="ellipse;whiteSpace=wrap;html=1;shadow=1;strokeColor=#FFFFFF;fillColor=#99CCFF;" vertex="1" parent="138">
                    <mxGeometry x="20" y="200" width="80" height="40" as="geometry"/>
                </mxCell>
                <mxCell id="108" value="&lt;font color=&quot;#ffffff&quot;&gt;&lt;span style=&quot;font-size: 13px ; background-color: rgba(255 , 255 , 255 , 0.01)&quot;&gt;f(1)&lt;/span&gt;&lt;/font&gt;" style="rounded=0;whiteSpace=wrap;html=1;shadow=1;strokeColor=#FFFFFF;fillColor=none;" vertex="1" parent="138">
                    <mxGeometry x="130" y="25" width="80" height="30" as="geometry"/>
                </mxCell>
                <mxCell id="109" value="&lt;font color=&quot;#ffffff&quot;&gt;&lt;span style=&quot;font-size: 13px ; background-color: rgba(255 , 255 , 255 , 0.01)&quot;&gt;f(2)&lt;/span&gt;&lt;/font&gt;" style="rounded=0;whiteSpace=wrap;html=1;shadow=1;strokeColor=#FFFFFF;fillColor=none;" vertex="1" parent="138">
                    <mxGeometry x="130" y="85" width="80" height="30" as="geometry"/>
                </mxCell>
                <mxCell id="110" value="&lt;font color=&quot;#ffffff&quot;&gt;&lt;span style=&quot;font-size: 13px ; background-color: rgba(255 , 255 , 255 , 0.01)&quot;&gt;f(3)&lt;/span&gt;&lt;/font&gt;" style="rounded=0;whiteSpace=wrap;html=1;shadow=1;strokeColor=#FFFFFF;fillColor=none;" vertex="1" parent="138">
                    <mxGeometry x="130" y="145" width="80" height="30" as="geometry"/>
                </mxCell>
                <mxCell id="111" value="&lt;font color=&quot;#ffffff&quot;&gt;&lt;span style=&quot;font-size: 13px ; background-color: rgba(255 , 255 , 255 , 0.01)&quot;&gt;f(4)&lt;/span&gt;&lt;/font&gt;" style="rounded=0;whiteSpace=wrap;html=1;shadow=1;strokeColor=#FFFFFF;fillColor=none;" vertex="1" parent="138">
                    <mxGeometry x="130" y="205" width="80" height="30" as="geometry"/>
                </mxCell>
                <mxCell id="112" style="edgeStyle=none;html=1;entryX=0;entryY=0.5;entryDx=0;entryDy=0;" edge="1" parent="138" target="109">
                    <mxGeometry relative="1" as="geometry">
                        <mxPoint x="100" y="100" as="sourcePoint"/>
                    </mxGeometry>
                </mxCell>
                <mxCell id="113" style="edgeStyle=none;html=1;entryX=0;entryY=0.5;entryDx=0;entryDy=0;" edge="1" parent="138" target="108">
                    <mxGeometry relative="1" as="geometry">
                        <mxPoint x="100" y="40" as="sourcePoint"/>
                    </mxGeometry>
                </mxCell>
                <mxCell id="114" style="edgeStyle=none;html=1;entryX=0;entryY=0.5;entryDx=0;entryDy=0;" edge="1" parent="138" target="110">
                    <mxGeometry relative="1" as="geometry">
                        <mxPoint x="100" y="160" as="sourcePoint"/>
                    </mxGeometry>
                </mxCell>
                <mxCell id="115" style="edgeStyle=none;html=1;entryX=0;entryY=0.5;entryDx=0;entryDy=0;" edge="1" parent="138" target="111">
                    <mxGeometry relative="1" as="geometry">
                        <mxPoint x="100" y="220" as="sourcePoint"/>
                    </mxGeometry>
                </mxCell>
                <mxCell id="140" style="edgeStyle=none;html=1;entryX=0.25;entryY=1;entryDx=0;entryDy=0;exitX=0.5;exitY=1;exitDx=0;exitDy=0;" edge="1" parent="1" source="65" target="80">
                    <mxGeometry relative="1" as="geometry">
                        <Array as="points">
                            <mxPoint x="650" y="1150"/>
                            <mxPoint x="880" y="1150"/>
                            <mxPoint x="1090" y="1150"/>
                        </Array>
                    </mxGeometry>
                </mxCell>
                <mxCell id="143" value="组件挂载完毕" style="edgeLabel;html=1;align=center;verticalAlign=middle;resizable=0;points=[];" vertex="1" connectable="0" parent="140">
                    <mxGeometry x="-0.0302" y="2" relative="1" as="geometry">
                        <mxPoint as="offset"/>
                    </mxGeometry>
                </mxCell>
                <mxCell id="141" style="edgeStyle=none;html=1;entryX=0.75;entryY=1;entryDx=0;entryDy=0;exitX=0.5;exitY=1;exitDx=0;exitDy=0;" edge="1" parent="1" source="66" target="80">
                    <mxGeometry relative="1" as="geometry">
                        <mxPoint x="1550" y="1110" as="sourcePoint"/>
                        <Array as="points">
                            <mxPoint x="1540" y="1150"/>
                            <mxPoint x="1150" y="1150"/>
                        </Array>
                    </mxGeometry>
                </mxCell>
                <mxCell id="144" value="组件挂载完毕" style="edgeLabel;html=1;align=center;verticalAlign=middle;resizable=0;points=[];" vertex="1" connectable="0" parent="141">
                    <mxGeometry x="-0.0059" relative="1" as="geometry">
                        <mxPoint as="offset"/>
                    </mxGeometry>
                </mxCell>
                <mxCell id="150" style="edgeStyle=orthogonalEdgeStyle;curved=1;html=1;exitX=0;exitY=0.5;exitDx=0;exitDy=0;entryX=0.5;entryY=1;entryDx=0;entryDy=0;" edge="1" parent="1" source="120" target="78">
                    <mxGeometry relative="1" as="geometry">
                        <Array as="points">
                            <mxPoint x="870" y="540"/>
                            <mxPoint x="870" y="1100"/>
                            <mxPoint x="1000" y="1100"/>
                        </Array>
                    </mxGeometry>
                </mxCell>
                <mxCell id="156" value="指令解析" style="edgeLabel;html=1;align=center;verticalAlign=middle;resizable=0;points=[];" vertex="1" connectable="0" parent="150">
                    <mxGeometry x="-0.2004" relative="1" as="geometry">
                        <mxPoint as="offset"/>
                    </mxGeometry>
                </mxCell>
                <mxCell id="151" style="edgeStyle=orthogonalEdgeStyle;curved=1;html=1;entryX=1;entryY=0.5;entryDx=0;entryDy=0;" edge="1" parent="1" source="78" target="108">
                    <mxGeometry relative="1" as="geometry">
                        <Array as="points">
                            <mxPoint x="920" y="1040"/>
                            <mxPoint x="920" y="720"/>
                            <mxPoint x="1740" y="720"/>
                            <mxPoint x="1740" y="880"/>
                        </Array>
                    </mxGeometry>
                </mxCell>
                <mxCell id="155" value="事件派发" style="edgeLabel;html=1;align=center;verticalAlign=middle;resizable=0;points=[];" vertex="1" connectable="0" parent="151">
                    <mxGeometry x="0.0577" y="-1" relative="1" as="geometry">
                        <mxPoint as="offset"/>
                    </mxGeometry>
                </mxCell>
                <mxCell id="152" style="edgeStyle=orthogonalEdgeStyle;curved=1;html=1;entryX=1;entryY=0.5;entryDx=0;entryDy=0;" edge="1" parent="1" source="78" target="110">
                    <mxGeometry relative="1" as="geometry">
                        <Array as="points">
                            <mxPoint x="900" y="1040"/>
                            <mxPoint x="900" y="690"/>
                            <mxPoint x="1780" y="690"/>
                            <mxPoint x="1780" y="1000"/>
                        </Array>
                    </mxGeometry>
                </mxCell>
                <mxCell id="154" value="事件派发" style="edgeLabel;html=1;align=center;verticalAlign=middle;resizable=0;points=[];" vertex="1" connectable="0" parent="152">
                    <mxGeometry x="-0.0545" relative="1" as="geometry">
                        <mxPoint as="offset"/>
                    </mxGeometry>
                </mxCell>
                <mxCell id="153" style="edgeStyle=orthogonalEdgeStyle;curved=1;html=1;" edge="1" parent="1" source="94">
                    <mxGeometry relative="1" as="geometry">
                        <mxPoint x="970" y="500" as="targetPoint"/>
                        <Array as="points">
                            <mxPoint x="760" y="450"/>
                            <mxPoint x="970" y="450"/>
                        </Array>
                    </mxGeometry>
                </mxCell>
                <mxCell id="157" value="交互调用" style="edgeLabel;html=1;align=center;verticalAlign=middle;resizable=0;points=[];" vertex="1" connectable="0" parent="153">
                    <mxGeometry x="0.3788" y="-41" relative="1" as="geometry">
                        <mxPoint as="offset"/>
                    </mxGeometry>
                </mxCell>
            </root>
        </mxGraphModel>
    </diagram>
</mxfile>